<svg width="16" height="16" viewBox="0 0 16 16" fill="none" xmlns="http://www.w3.org/2000/svg">
<path d="M0.919348 7.80791C1.1391 7.79894 1.30055 7.75185 1.4037 7.66664C1.50685 7.57695 1.55842 7.45138 1.55842 7.28993C1.55842 7.16884 1.536 6.9289 1.49115 6.57013C1.48667 6.53425 1.47321 6.41989 1.45079 6.22704C1.42837 6.02971 1.41715 5.85257 1.41715 5.6956C1.41715 5.3144 1.53376 5.0184 1.76696 4.80762C2.00017 4.59235 2.31186 4.48472 2.70203 4.48472H3.18638V5.42652H2.92403C2.78052 5.42652 2.67737 5.45791 2.61458 5.5207C2.55179 5.58348 2.5204 5.6799 2.5204 5.80996C2.5204 5.90863 2.53834 6.13286 2.57422 6.48267C2.61458 6.91769 2.63476 7.20247 2.63476 7.33702C2.63476 7.58368 2.57422 7.78773 2.45313 7.94918C2.33653 8.11063 2.15714 8.21378 1.91496 8.25863V8.27208C2.15714 8.32142 2.33653 8.42681 2.45313 8.58826C2.57422 8.74522 2.63476 8.94928 2.63476 9.20043C2.63476 9.33497 2.61458 9.61975 2.57422 10.0548C2.53834 10.3956 2.5204 10.6176 2.5204 10.7208C2.5204 10.8508 2.55179 10.9472 2.61458 11.01C2.67737 11.0773 2.78052 11.1109 2.92403 11.1109H3.18638V12.0527H2.70203C2.31186 12.0527 2.00017 11.9451 1.76696 11.7298C1.53376 11.519 1.41715 11.2208 1.41715 10.8351C1.41715 10.6781 1.42837 10.5032 1.45079 10.3104C1.47321 10.1131 1.48667 9.99647 1.49115 9.96059C1.536 9.60181 1.55842 9.36188 1.55842 9.24079C1.55842 9.08831 1.50685 8.96722 1.4037 8.87752C1.30055 8.78335 1.1391 8.73177 0.919348 8.7228V7.80791ZM6.39537 7.04775C6.3595 6.88181 6.29671 6.75848 6.20701 6.67776C6.11732 6.59255 5.9895 6.54994 5.82357 6.54994C5.56794 6.54994 5.38406 6.66206 5.27195 6.8863C5.15983 7.10605 5.10153 7.45586 5.09704 7.93573C5.19571 7.77876 5.33698 7.65543 5.52085 7.56574C5.70921 7.47604 5.91551 7.4312 6.13974 7.4312C6.57925 7.4312 6.9313 7.57022 7.1959 7.84828C7.46498 8.12633 7.59953 8.51426 7.59953 9.01207C7.59953 9.33945 7.53226 9.62648 7.39771 9.87314C7.26766 10.1198 7.07481 10.3126 6.81918 10.4517C6.56804 10.5907 6.2698 10.6602 5.92448 10.6602C5.23383 10.6602 4.75396 10.4449 4.48487 10.0144C4.21579 9.57939 4.08125 8.95601 4.08125 8.14427C4.08125 7.29217 4.22252 6.65982 4.50506 6.24722C4.79208 5.83014 5.24952 5.6216 5.87739 5.6216C6.21374 5.6216 6.49628 5.68887 6.725 5.82342C6.95821 5.95347 7.13311 6.12614 7.24972 6.3414C7.37081 6.55667 7.44256 6.79212 7.46498 7.04775H6.39537ZM5.86393 8.33936C5.67109 8.33936 5.50964 8.39766 5.37958 8.51426C5.25401 8.62638 5.19122 8.78783 5.19122 8.99861C5.19122 9.21388 5.24952 9.38206 5.36613 9.50315C5.48721 9.62423 5.65763 9.68478 5.87739 9.68478C6.07472 9.68478 6.22944 9.62648 6.34156 9.50987C6.45816 9.38879 6.51646 9.22509 6.51646 9.01879C6.51646 8.80801 6.4604 8.64208 6.34828 8.52099C6.23617 8.3999 6.07472 8.33936 5.86393 8.33936ZM8.25016 8.11063C8.25016 7.33926 8.39816 6.73158 8.69415 6.28759C8.99463 5.8436 9.47674 5.6216 10.1405 5.6216C10.8042 5.6216 11.2841 5.8436 11.5801 6.28759C11.8806 6.73158 12.0308 7.33926 12.0308 8.11063C12.0308 8.89098 11.8806 9.50315 11.5801 9.94714C11.2841 10.3911 10.8042 10.6131 10.1405 10.6131C9.47674 10.6131 8.99463 10.3911 8.69415 9.94714C8.39816 9.50315 8.25016 8.89098 8.25016 8.11063ZM10.9006 8.11063C10.9006 7.65768 10.8513 7.31011 10.7527 7.06793C10.654 6.82127 10.4499 6.69794 10.1405 6.69794C9.83104 6.69794 9.62698 6.82127 9.52832 7.06793C9.42965 7.31011 9.38032 7.65768 9.38032 8.11063C9.38032 8.4156 9.39826 8.66898 9.43414 8.8708C9.47001 9.06813 9.54177 9.22958 9.6494 9.35515C9.76152 9.47624 9.92522 9.53678 10.1405 9.53678C10.3558 9.53678 10.5172 9.47624 10.6248 9.35515C10.737 9.22958 10.811 9.06813 10.8468 8.8708C10.8827 8.66898 10.9006 8.4156 10.9006 8.11063ZM15.0805 8.7228C14.8607 8.73177 14.6993 8.78335 14.5961 8.87752C14.493 8.96722 14.4414 9.08831 14.4414 9.24079C14.4414 9.36188 14.4638 9.60181 14.5087 9.96059C14.5132 9.99647 14.5266 10.1131 14.5491 10.3104C14.5715 10.5032 14.5827 10.6781 14.5827 10.8351C14.5827 11.2208 14.4661 11.519 14.2329 11.7298C13.9997 11.9451 13.688 12.0527 13.2978 12.0527H12.8135V11.1109H13.0758C13.2193 11.1109 13.3225 11.0773 13.3853 11.01C13.448 10.9472 13.4794 10.8508 13.4794 10.7208C13.4794 10.6176 13.4615 10.3956 13.4256 10.0548C13.3853 9.61975 13.3651 9.33497 13.3651 9.20043C13.3651 8.94928 13.4234 8.74522 13.54 8.58826C13.6611 8.42681 13.8427 8.32142 14.0849 8.27208V8.25863C13.8427 8.21378 13.6611 8.11063 13.54 7.94918C13.4234 7.78773 13.3651 7.58368 13.3651 7.33702C13.3651 7.20247 13.3853 6.91769 13.4256 6.48267C13.4615 6.13286 13.4794 5.90863 13.4794 5.80996C13.4794 5.6799 13.448 5.58348 13.3853 5.5207C13.3225 5.45791 13.2193 5.42652 13.0758 5.42652H12.8135V4.48472H13.2978C13.688 4.48472 13.9997 4.59235 14.2329 4.80762C14.4661 5.0184 14.5827 5.3144 14.5827 5.6956C14.5827 5.85257 14.5715 6.02971 14.5491 6.22704C14.5266 6.41989 14.5132 6.53425 14.5087 6.57013C14.4638 6.9289 14.4414 7.16884 14.4414 7.28993C14.4414 7.45138 14.493 7.57695 14.5961 7.66664C14.6993 7.75185 14.8607 7.79894 15.0805 7.80791V8.7228Z" fill="#AD89FB"/>
</svg>
