<svg width="48" height="31" viewBox="0 0 48 31" fill="none" xmlns="http://www.w3.org/2000/svg">
<path d="M3.75025 14.1193C4.36319 14.0943 4.81352 13.9629 5.10123 13.7252C5.38894 13.4751 5.53279 13.1248 5.53279 12.6745C5.53279 12.3367 5.47025 11.6675 5.34516 10.6668C5.33265 10.5667 5.29512 10.2477 5.23258 9.70982C5.17003 9.15942 5.13876 8.66531 5.13876 8.22749C5.13876 7.16422 5.46399 6.33862 6.11447 5.75069C6.76494 5.15025 7.63432 4.85004 8.72261 4.85004H10.0736V7.47695H9.34181C8.94152 7.47695 8.65381 7.56451 8.47868 7.73964C8.30356 7.91476 8.21599 8.18371 8.21599 8.54647C8.21599 8.82167 8.26603 9.44713 8.3661 10.4228C8.47868 11.6362 8.53498 12.4305 8.53498 12.8058C8.53498 13.4938 8.3661 14.063 8.02836 14.5133C7.70312 14.9636 7.20276 15.2513 6.52727 15.3764V15.414C7.20276 15.5516 7.70312 15.8455 8.02836 16.2959C8.3661 16.7337 8.53498 17.3028 8.53498 18.0033C8.53498 18.3786 8.47868 19.1729 8.3661 20.3863C8.26603 21.337 8.21599 21.9562 8.21599 22.2439C8.21599 22.6067 8.30356 22.8756 8.47868 23.0508C8.65381 23.2384 8.94152 23.3322 9.34181 23.3322H10.0736V25.9591H8.72261C7.63432 25.9591 6.76494 25.6589 6.11447 25.0585C5.46399 24.4705 5.13876 23.6387 5.13876 22.5629C5.13876 22.1251 5.17003 21.6372 5.23258 21.0993C5.29512 20.5489 5.33265 20.2237 5.34516 20.1236C5.47025 19.1229 5.53279 18.4537 5.53279 18.1159C5.53279 17.6906 5.38894 17.3529 5.10123 17.1027C4.81352 16.84 4.36319 16.6961 3.75025 16.6711V14.1193ZM19.0243 11.999C18.9242 11.5361 18.7491 11.1921 18.4989 10.967C18.2487 10.7293 17.8922 10.6105 17.4294 10.6105C16.7164 10.6105 16.2035 10.9232 15.8908 11.5487C15.578 12.1616 15.4154 13.1373 15.4029 14.4758C15.6781 14.038 16.0721 13.694 16.585 13.4438C17.1104 13.1936 17.6858 13.0685 18.3113 13.0685C19.5372 13.0685 20.5191 13.4563 21.2572 14.2319C22.0077 15.0074 22.383 16.0895 22.383 17.478C22.383 18.3911 22.1953 19.1917 21.8201 19.8797C21.4573 20.5677 20.9194 21.1056 20.2064 21.4934C19.5059 21.8812 18.674 22.0751 17.7108 22.0751C15.7844 22.0751 14.446 21.4746 13.6954 20.2737C12.9449 19.0604 12.5696 17.3216 12.5696 15.0575C12.5696 12.6807 12.9636 10.9169 13.7517 9.76611C14.5523 8.60276 15.8282 8.02109 17.5795 8.02109C18.5177 8.02109 19.3057 8.20873 19.9437 8.584C20.5942 8.94676 21.082 9.42836 21.4073 10.0288C21.745 10.6292 21.9452 11.286 22.0077 11.999H19.0243ZM17.542 15.6016C17.0041 15.6016 16.5537 15.7642 16.191 16.0895C15.8407 16.4022 15.6656 16.8525 15.6656 17.4404C15.6656 18.0409 15.8282 18.51 16.1535 18.8477C16.4912 19.1855 16.9665 19.3543 17.5795 19.3543C18.1299 19.3543 18.5615 19.1917 18.8742 18.8665C19.1994 18.5287 19.362 18.0721 19.362 17.4967C19.362 16.9088 19.2057 16.446 18.8929 16.1082C18.5802 15.7705 18.1299 15.6016 17.542 15.6016ZM24.1978 14.9636C24.1978 12.8121 24.6106 11.1171 25.4362 9.87869C26.2743 8.64029 27.619 8.02109 29.4704 8.02109C31.3217 8.02109 32.6602 8.64029 33.4858 9.87869C34.3239 11.1171 34.7429 12.8121 34.7429 14.9636C34.7429 17.1402 34.3239 18.8477 33.4858 20.0861C32.6602 21.3245 31.3217 21.9437 29.4704 21.9437C27.619 21.9437 26.2743 21.3245 25.4362 20.0861C24.6106 18.8477 24.1978 17.1402 24.1978 14.9636ZM31.5906 14.9636C31.5906 13.7002 31.453 12.7308 31.1778 12.0553C30.9026 11.3673 30.3335 11.0233 29.4704 11.0233C28.6072 11.0233 28.0381 11.3673 27.7629 12.0553C27.4877 12.7308 27.3501 13.7002 27.3501 14.9636C27.3501 15.8143 27.4001 16.521 27.5002 17.0839C27.6002 17.6343 27.8004 18.0847 28.1006 18.4349C28.4133 18.7727 28.8699 18.9415 29.4704 18.9415C30.0708 18.9415 30.5211 18.7727 30.8213 18.4349C31.1341 18.0847 31.3405 17.6343 31.4405 17.0839C31.5406 16.521 31.5906 15.8143 31.5906 14.9636ZM43.2493 16.6711C42.6364 16.6961 42.186 16.84 41.8983 17.1027C41.6106 17.3529 41.4668 17.6906 41.4668 18.1159C41.4668 18.4537 41.5293 19.1229 41.6544 20.1236C41.6669 20.2237 41.7044 20.5489 41.767 21.0993C41.8295 21.6372 41.8608 22.1251 41.8608 22.5629C41.8608 23.6387 41.5356 24.4705 40.8851 25.0585C40.2346 25.6589 39.3652 25.9591 38.277 25.9591H36.926V23.3322H37.6578C38.058 23.3322 38.3457 23.2384 38.5209 23.0508C38.696 22.8756 38.7836 22.6067 38.7836 22.2439C38.7836 21.9562 38.7335 21.337 38.6335 20.3863C38.5209 19.1729 38.4646 18.3786 38.4646 18.0033C38.4646 17.3028 38.6272 16.7337 38.9524 16.2959C39.2902 15.8455 39.7968 15.5516 40.4723 15.414V15.3764C39.7968 15.2513 39.2902 14.9636 38.9524 14.5133C38.6272 14.063 38.4646 13.4938 38.4646 12.8058C38.4646 12.4305 38.5209 11.6362 38.6335 10.4228C38.7335 9.44713 38.7836 8.82167 38.7836 8.54647C38.7836 8.18371 38.696 7.91476 38.5209 7.73964C38.3457 7.56451 38.058 7.47695 37.6578 7.47695H36.926V4.85004H38.277C39.3652 4.85004 40.2346 5.15025 40.8851 5.75069C41.5356 6.33862 41.8608 7.16422 41.8608 8.22749C41.8608 8.66531 41.8295 9.15942 41.767 9.70982C41.7044 10.2477 41.6669 10.5667 41.6544 10.6668C41.5293 11.6675 41.4668 12.3367 41.4668 12.6745C41.4668 13.1248 41.6106 13.4751 41.8983 13.7252C42.186 13.9629 42.6364 14.0943 43.2493 14.1193V16.6711Z" fill="black"/>
</svg>
