<svg width="93" height="93" viewBox="0 0 93 93" fill="none" xmlns="http://www.w3.org/2000/svg">
<rect width="93" height="93" fill="#EDBEFF"/>
<path d="M26.0341 58H20.7614L28.7955 34.7273H35.1364L43.1591 58H37.8864L32.0568 40.0455H31.875L26.0341 58ZM25.7045 48.8523H38.1591V52.6932H25.7045V48.8523ZM45.9602 58V34.7273H55.142C56.9072 34.7273 58.411 35.0644 59.6534 35.7386C60.8958 36.4053 61.8428 37.3333 62.4943 38.5227C63.1534 39.7045 63.483 41.0682 63.483 42.6136C63.483 44.1591 63.1496 45.5227 62.483 46.7045C61.8163 47.8864 60.8504 48.8068 59.5852 49.4659C58.3277 50.125 56.8049 50.4545 55.017 50.4545H49.1648V46.5114H54.2216C55.1686 46.5114 55.9489 46.3485 56.5625 46.0227C57.1837 45.6894 57.6458 45.2311 57.9489 44.6477C58.2595 44.0568 58.4148 43.3788 58.4148 42.6136C58.4148 41.8409 58.2595 41.1667 57.9489 40.5909C57.6458 40.0076 57.1837 39.5568 56.5625 39.2386C55.9413 38.9129 55.1534 38.75 54.1989 38.75H50.8807V58H45.9602ZM71.5994 34.7273V58H66.679V34.7273H71.5994Z" fill="black"/>
</svg>
