<svg width="93" height="93" viewBox="0 0 93 93" fill="none" xmlns="http://www.w3.org/2000/svg">
<g clip-path="url(#clip0_68_165)">
<rect width="93" height="93" fill="white"/>
<path d="M-1 -1H93V95H-1V-1Z" fill="#222222"/>
<path d="M47 53C50.3137 53 53 50.3137 53 47C53 43.6863 50.3137 41 47 41C43.6863 41 41 43.6863 41 47C41 50.3137 43.6863 53 47 53Z" fill="#00D8FF"/>
<path d="M47.0013 31C57.2705 31 66.8117 32.509 74.0043 35.043C82.6707 38.0973 88 42.7279 88 46.9211C88 51.2902 82.3521 56.2107 73.0461 59.3659C66.0103 61.7524 56.7497 63 47.0013 63C37.005 63 27.5422 61.8301 20.4255 59.34C11.4228 56.19 6 51.2074 6 46.9211C6 42.7615 11.0891 38.1672 19.6342 35.1181C26.8546 32.5427 36.6309 31 47.0013 31Z" stroke="#00D8FF" stroke-width="3.61218" stroke-miterlimit="10"/>
<path d="M32.9477 39.2652C38.0943 30.4323 44.1591 22.9573 49.917 17.9999C56.8544 12.0259 63.4569 9.68655 67.0157 11.7172C70.7241 13.8332 72.0709 21.0748 70.0848 30.6105C68.5832 37.8194 65.0017 46.3863 60.1138 54.7725C55.1042 63.3695 49.3666 70.9424 43.6873 75.8571C36.5014 82.0745 29.5513 84.3236 25.914 82.2477C22.3831 80.2321 21.0337 73.6306 22.7256 64.8027C24.1562 57.3378 27.7479 48.1835 32.9477 39.2652Z" stroke="#00D8FF" stroke-width="3.61218" stroke-miterlimit="10"/>
<path d="M33.1316 54.7431C27.8784 45.9109 24.3005 36.9733 22.8085 29.5554C21.0118 20.6178 22.2819 13.7827 25.901 11.7455C29.6725 9.62033 36.8076 12.0846 44.2937 18.5529C49.9548 23.4438 55.7656 30.7989 60.7529 39.1839C65.8667 47.7799 69.7001 56.4864 71.1896 63.8138C73.0766 73.0881 71.5484 80.1744 67.8492 82.2568C64.2584 84.279 57.6913 82.1387 50.6853 76.2733C44.7687 71.3171 38.4364 63.6606 33.1316 54.7431Z" stroke="#00D8FF" stroke-width="3.61218" stroke-miterlimit="10"/>
</g>
<defs>
<clipPath id="clip0_68_165">
<rect width="93" height="93" fill="white"/>
</clipPath>
</defs>
</svg>
